<svg xmlns="http://www.w3.org/2000/svg" width="216.115" height="167.495" viewBox="0 0 216.115 167.495"><defs><style>.a{fill:#8ecc3e;}.b{fill:#74a534;}.c{fill:#a6d63c;}.d{fill:#7eb239;}.e{fill:#ff9c31;}.f{fill:#ed8115;}.g{fill:#ffb743;}.h{fill:#d87012;}.i{fill:#619329;}</style></defs><g transform="translate(-9.358 30.112) rotate(-22)"><path class="a" d="M355.862,22.8l9.1,17.276.107.215L360.7,42.334l18.208,31.9-3.584,3.118L336.4,34.915Z" transform="translate(-319.912 -22.801)"/><path class="b" d="M375,25.166l3.8-2.366,9.1,17.276.108.215-4.086,1.9Z" transform="translate(-342.849 -22.801)"/><path class="c" d="M401.247,123l4.158,1.541L370.423,99.489,355.943,92.5,352,105.152Z" transform="translate(-352 -67.519)"/><path class="d" d="M353.111,92.5l14.48,6.989,34.982,25.053-14.086-5.125L352,96.012Z" transform="translate(-349.168 -67.519)"/><path class="a" d="M330.583,95.072l-1.577-4.659L319.4,62.17l3.082-1.47L332.59,88.119l1.577,4.3c-.394,3.262-3.656,7.563-7.168,9.928A15.019,15.019,0,0,0,330.583,95.072Z" transform="translate(-269.077 -47.117)"/><path class="e" d="M56.944,130.839a34.52,34.52,0,0,0-6.918-.645,44.044,44.044,0,0,0-6.523.5,33.636,33.636,0,0,0-5.95,1.828l-.036.036c2.33,3.333-.681,10.788-7.061,17.168s-13.835,9.391-17.168,7.061a34.489,34.489,0,0,0-1.864,6.021c-1.147,7.993-1.075,21,9.713,28.638.645.466,1.326.9,2.043,1.326L92.033,234.35l39.57,23.8a5.378,5.378,0,0,0,7.312-7.312l-16.38-27.132L73.467,142.38A23.83,23.83,0,0,0,56.944,130.839Z" transform="translate(36.031 -91.701)"/><path class="f" d="M64.911,233.89l-2.294-4.516L19.463,144.788a23.37,23.37,0,0,0-7.634-9.068,4.907,4.907,0,0,0-.789-3.154l.036-.036a35.578,35.578,0,0,1,5.95-1.828,49.485,49.485,0,0,1,6.523-.5,37.077,37.077,0,0,1,6.918.645,23.539,23.539,0,0,1,16.487,11.577l49.1,81.325,16.38,27.132a5.378,5.378,0,0,1-7.312,7.312L65.556,234.32Z" transform="translate(62.472 -91.707)"/><path class="g" d="M295.262,158.057c3.333,2.33,10.788-.681,17.168-7.061s9.391-13.835,7.061-17.168a2.468,2.468,0,0,0-.394-.466c-1.864-1.864-5.52-1.47-9.606.645l1.577,4.3c-.573,4.7-7.025,11.469-11.685,11.684l-4.158-1.505c-1.9,3.907-2.222,7.383-.43,9.175a2.682,2.682,0,0,0,.466.394Z" transform="translate(-245.943 -92.969)"/><g transform="translate(55.484 38.816)"><path class="h" d="M274.65,267.293a33.294,33.294,0,0,0,20.968-14.623.035.035,0,0,1,.036-.036,2.142,2.142,0,1,1,3.548,2.4,37.046,37.046,0,0,1-21.541,15.878l-.43-.251c-.717-.43-1.4-.86-2.043-1.326a21.137,21.137,0,0,1-1.685-1.326,1.988,1.988,0,0,1,1.147-.717Z" transform="translate(-273.503 -208.477)"/><path class="h" d="M237.008,154.827a2.113,2.113,0,0,1-1.505.609,2.231,2.231,0,0,1-1.541-.645,2.153,2.153,0,0,1,.072-3.047c5.054-4.839,7.455-13.477,5.448-19.641v-.036a2.222,2.222,0,0,1-.072-.968c.717.108,1.434.215,2.115.358.789.143,1.613.358,2.4.574,1.828,7.527-1,17.1-6.918,22.8Z" transform="translate(-204.033 -131.1)"/><path class="h" d="M57.2,398.422a2.131,2.131,0,0,1-1.362.5,2.09,2.09,0,0,1-1.649-.789,2.149,2.149,0,0,1,.287-3.011,9.051,9.051,0,0,0,3.763-7.132,2.109,2.109,0,0,1,1.039-1.792l1.111,1.828,1.792,2.939A13.639,13.639,0,0,1,57.2,398.422Z" transform="translate(42.66 -294.768)"/><path class="h" d="M112.341,404.664c3.226-.072,6.416-2.616,8.172-4.767a2.139,2.139,0,0,1,3.3,2.724,18.2,18.2,0,0,1-8.6,5.914l-2.832-1.72-1.864-1.111A2.218,2.218,0,0,1,112.341,404.664Z" transform="translate(-39.833 -303.053)"/><path class="h" d="M169,259.418a35.558,35.558,0,0,0,10.717-15.34v-.036a2.154,2.154,0,1,1,4.05,1.47,39.817,39.817,0,0,1-12.043,17.2,2.13,2.13,0,0,1-1.362.5,2.09,2.09,0,0,1-1.649-.789A2.123,2.123,0,0,1,169,259.418Z" transform="translate(-120.108 -202.645)"/></g><path class="i" d="M329.221,66.542l2.437-2.437,32.115,34.444-18.208-31.9,4.373-2.043,8.244-3.907,11.685,31.72c-.573,4.659-7.025,11.469-11.685,11.684L323.2,79.051l-3.8-2.724Z" transform="translate(-304.776 -47.117)"/></g></svg>