<svg xmlns="http://www.w3.org/2000/svg" width="14.963" height="17.934" viewBox="0 0 14.963 17.934"><g transform="translate(0 0)"><path d="M91.351,8.639a4.18,4.18,0,0,0,3.054-1.266A4.179,4.179,0,0,0,95.671,4.32a4.18,4.18,0,0,0-1.266-3.054,4.319,4.319,0,0,0-6.108,0A4.18,4.18,0,0,0,87.032,4.32,4.179,4.179,0,0,0,88.3,7.374,4.181,4.181,0,0,0,91.351,8.639Zm0,0" transform="translate(-83.983 0)"/><path d="M14.926,252.444a10.67,10.67,0,0,0-.145-1.133,8.93,8.93,0,0,0-.279-1.139,5.627,5.627,0,0,0-.468-1.063,4.01,4.01,0,0,0-.706-.92,3.114,3.114,0,0,0-1.015-.637,3.507,3.507,0,0,0-1.3-.234,1.315,1.315,0,0,0-.7.3c-.21.137-.457.3-.731.472a4.191,4.191,0,0,1-.946.417,3.675,3.675,0,0,1-2.315,0,4.181,4.181,0,0,1-.946-.417c-.272-.174-.518-.333-.732-.472a1.313,1.313,0,0,0-.7-.3,3.5,3.5,0,0,0-1.3.235,3.111,3.111,0,0,0-1.015.637,4.01,4.01,0,0,0-.706.92,5.639,5.639,0,0,0-.468,1.063,8.949,8.949,0,0,0-.279,1.139,10.632,10.632,0,0,0-.145,1.134c-.024.343-.036.7-.036,1.059a2.978,2.978,0,0,0,.884,2.253,3.184,3.184,0,0,0,2.279.831H11.8a3.183,3.183,0,0,0,2.279-.831,2.977,2.977,0,0,0,.885-2.253c0-.361-.012-.718-.036-1.059Zm0,0" transform="translate(0 -238.653)"/></g></svg>