<svg xmlns="http://www.w3.org/2000/svg" width="69.741" height="62.579" viewBox="0 0 69.741 62.579"><defs><style>.a{fill:#e9e9ea;}.b{fill:#c5c4cc;}.c{fill:#8cbafa;}.d{fill:#5692d8;}.e{fill:#ffd2c0;}.f{fill:#edaa9d;}.g{fill:#f9aa4b;}.h{fill:#c1762b;}.i{fill:#ffeb96;}.j{fill:#ffcd34;}</style></defs><g transform="translate(0)"><path class="a" d="M52.435,8.477V2.162A2.162,2.162,0,0,1,54.6,0H76.758A2.162,2.162,0,0,1,78.92,2.162V8.477l6.639,7.857v42.5a3.751,3.751,0,0,1-3.751,3.75H49.546a3.75,3.75,0,0,1-3.75-3.75v-42.5Zm0,0" transform="translate(-39.558)"/><path class="b" d="M250.673,8.477V2.162A2.162,2.162,0,0,0,248.511,0h-3.878a2.162,2.162,0,0,1,2.162,2.162V8.477l6.639,7.857v42.5a3.75,3.75,0,0,1-3.75,3.75h3.877a3.751,3.751,0,0,0,3.751-3.75v-42.5Zm0,0" transform="translate(-211.311)"/><path class="c" d="M81.809,166.155H49.547A3.75,3.75,0,0,1,45.8,162.4V119.91H85.559V162.4a3.751,3.751,0,0,1-3.751,3.751Zm0,0" transform="translate(-39.559 -103.576)"/><path class="d" d="M289.335,119.91h-3.878V162.4a3.75,3.75,0,0,1-3.75,3.751h3.878a3.75,3.75,0,0,0,3.75-3.751Zm0,0" transform="translate(-243.335 -103.577)"/><path class="c" d="M118.859,0H96.7a2.162,2.162,0,0,0-2.161,2.162V8.477H121.02V2.162A2.161,2.161,0,0,0,118.859,0Zm0,0" transform="translate(-81.659 0)"/><path class="d" d="M250.676,8.477V2.162A2.162,2.162,0,0,0,248.514,0h-3.877A2.162,2.162,0,0,1,246.8,2.162V8.477Zm0,0" transform="translate(-211.314)"/><path class="e" d="M282.866,328.205c0-4.066-2.709-7.361-6.05-7.361s-6.05,3.3-6.05,7.361,2.709,7.362,6.05,7.362S282.866,332.272,282.866,328.205Zm0,0" transform="translate(-233.884 -277.141)"/><path class="e" d="M393.147,328.205c0-4.066-2.709-7.361-6.05-7.361s-6.05,3.3-6.05,7.361,2.709,7.362,6.05,7.362S393.147,332.272,393.147,328.205Zm0,0" transform="translate(-329.143 -277.141)"/><path class="f" d="M419.367,320.84a5.041,5.041,0,0,0-.961.094c2.093.56,3.693,3.6,3.693,7.268s-1.6,6.708-3.693,7.268a5,5,0,0,0,.961.094c3.341,0,6.05-3.3,6.05-7.362S422.709,320.84,419.367,320.84Zm0,0" transform="translate(-361.414 -277.137)"/><path class="f" d="M309.086,320.84a5.041,5.041,0,0,0-.961.094c2.093.56,3.693,3.6,3.693,7.268s-1.6,6.708-3.693,7.268a5,5,0,0,0,.961.094c3.342,0,6.05-3.3,6.05-7.362S312.428,320.84,309.086,320.84Zm0,0" transform="translate(-266.155 -277.137)"/><path class="g" d="M270.7,380.414H254.039l2.788,10.016a1.018,1.018,0,0,0,.98.745h9.121a1.017,1.017,0,0,0,.98-.745l1.214-4.362a.374.374,0,0,1,.36-.274h.792a.374.374,0,0,1,.36.274l1.214,4.362a1.017,1.017,0,0,0,.98.745h9.121a1.018,1.018,0,0,0,.98-.745l2.788-10.016Zm0,0" transform="translate(-219.436 -328.596)"/><path class="h" d="M437.338,380.414,434.55,390.43a1.017,1.017,0,0,1-.98.745h3.456a1.018,1.018,0,0,0,.981-.745l2.787-10.016Zm0,0" transform="translate(-374.512 -328.596)"/><path class="i" d="M25.161,316.145a3.166,3.166,0,0,1,2.871-3.152.321.321,0,0,0,.294-.319v-3.349a.322.322,0,0,0-.272-.322,2.007,2.007,0,0,1,0-3.977.322.322,0,0,0,.272-.322v-1.594a1.311,1.311,0,0,0-1.311-1.312H3.88A3.88,3.88,0,0,0,0,305.677v13.71a3.88,3.88,0,0,0,3.88,3.88H27.014a1.311,1.311,0,0,0,1.311-1.312v-2.34a.322.322,0,0,0-.294-.319,3.165,3.165,0,0,1-2.871-3.152Zm0,0" transform="translate(0 -260.688)"/><path class="g" d="M4.5,319.388v-13.71a3.88,3.88,0,0,1,3.88-3.88H3.88A3.88,3.88,0,0,0,0,305.678v13.71a3.88,3.88,0,0,0,3.88,3.88h4.5a3.88,3.88,0,0,1-3.88-3.88Zm0,0" transform="translate(0 -260.689)"/><path class="j" d="M70.036,329.673a1.782,1.782,0,1,1-1.782-1.782A1.782,1.782,0,0,1,70.036,329.673Zm0,0" transform="translate(-57.418 -283.228)"/><path class="j" d="M115.489,386.809a2.926,2.926,0,1,1-2.926-2.926A2.926,2.926,0,0,1,115.489,386.809Zm0,0" transform="translate(-94.702 -331.593)"/><path class="a" d="M113,176.71c6.664-.147,13.328,6.92,19.992,6.732a.829.829,0,0,0,.8-.83v-7.267a.832.832,0,0,0-.858-.828c-6.664.147-13.328-6.92-19.992-6.732a.829.829,0,0,0-.8.83v7.266A.832.832,0,0,0,113,176.71Zm0,0" transform="translate(-96.866 -144.927)"/><path class="h" d="M266.2,374.874H229.681a1.037,1.037,0,0,1,0-2.074h36.524a1.037,1.037,0,0,1,0,2.074Zm0,0" transform="translate(-197.5 -322.02)"/></g></svg>