<svg xmlns="http://www.w3.org/2000/svg" width="64.47" height="75.257" viewBox="0 0 64.47 75.257"><defs><style>.a{fill:#fb4;}</style></defs><g transform="translate(-34.4)"><g transform="translate(34.4)"><path class="a" d="M53.34,37.9A18.948,18.948,0,1,0,34.4,18.94,18.943,18.943,0,0,0,53.34,37.9ZM46.723,26.434c.172-.627.345-1.239.533-1.866.22-.721.423-.8,1.082-.455a10.589,10.589,0,0,0,3.575,1.066,4.408,4.408,0,0,0,2.336-.314,1.825,1.825,0,0,0,.439-3.2,5.722,5.722,0,0,0-1.333-.784A31.647,31.647,0,0,1,49.7,19.253a5.165,5.165,0,0,1-2.916-4.939,5.427,5.427,0,0,1,3.967-5.033c.972-.361.972-.345.988-1.364V6.883c.016-.768.157-.894.909-.925h.706c1.631,0,1.631,0,1.631,1.631,0,1.145,0,1.16,1.145,1.333a10.174,10.174,0,0,1,2.524.753.753.753,0,0,1,.486.988c-.2.706-.392,1.411-.627,2.1-.22.658-.423.753-1.05.455a8.061,8.061,0,0,0-4.014-.8,2.76,2.76,0,0,0-1.066.22,1.517,1.517,0,0,0-.376,2.7,6.528,6.528,0,0,0,1.74.972,32.025,32.025,0,0,1,3.183,1.442A5.7,5.7,0,0,1,58.764,26.4,6.1,6.1,0,0,1,55.6,28.425a.884.884,0,0,0-.768,1c.031.564,0,1.113,0,1.678a.694.694,0,0,1-.753.784c-.6.016-1.207.016-1.8,0a.732.732,0,0,1-.784-.831c0-.408,0-.815-.016-1.223-.016-.894-.031-.941-.909-1.082a10.954,10.954,0,0,1-3.214-.925C46.582,27.469,46.5,27.265,46.723,26.434Z" transform="translate(-34.4)"/><path class="a" d="M112.1,134.008h-2.211A24.767,24.767,0,0,0,101.77,122.5a2.118,2.118,0,0,0-.063-.439,8.911,8.911,0,0,1,1.333-7.2,1.8,1.8,0,0,0-1.74-2.744,13.289,13.289,0,0,0-7.291,3.057,7.084,7.084,0,0,0-2.226,3.669,22.8,22.8,0,0,1-36.029,12.747,22.153,22.153,0,0,0-1.427,14.55h0a.274.274,0,0,0,.016.078,22.63,22.63,0,0,0,1.881,5,26.246,26.246,0,0,0,4.813,7.275,13.875,13.875,0,0,1,3.732,8.921v.847h0a1.641,1.641,0,0,0,1.631,1.521h9.909a1.629,1.629,0,0,0,1.631-1.631V165.71a34.082,34.082,0,0,0,4.406.3,31.641,31.641,0,0,0,3.465-.188v2.336a1.629,1.629,0,0,0,1.631,1.631h9.94a1.629,1.629,0,0,0,1.631-1.631V165.71a9.78,9.78,0,0,1,3.371-6.836l.329-.282c.031-.031.063-.047.094-.078h0a24.521,24.521,0,0,0,7.243-11.069h2.085a3.011,3.011,0,0,0,3.01-3.01v-7.416A3.058,3.058,0,0,0,112.1,134.008Zm-12.4.533a2.462,2.462,0,1,1,2.462-2.462A2.456,2.456,0,0,1,99.7,134.541Z" transform="translate(-50.674 -94.529)"/></g></g></svg>