<svg xmlns="http://www.w3.org/2000/svg" width="71.143" height="72.171" viewBox="0 0 71.143 72.171"><defs><style>.a{fill:#ffcf5d;}.b{fill:#ffb545;}.c{fill:#28d05b;}.d{fill:#b66652;}.e{fill:#ff5368;}.f{fill:#d9435b;}.g{fill:#ff983b;}.h{fill:#ff7e40;}.i{fill:#5c87bd;}.j{fill:#456ea2;}.k{fill:#315588;}</style></defs><g transform="translate(-0.001 0.001)"><path class="a" d="M150.93,18.354a5.573,5.573,0,0,0-1.847-2.714,2.124,2.124,0,0,1-.793-1.666V8.695a1.074,1.074,0,0,0-1.074-1.074h-2.147A1.074,1.074,0,0,0,144,8.695v4.478a2.132,2.132,0,0,1-1.138,1.894,5.567,5.567,0,0,0-2.456,2.575C138,22.667,133.743,33.074,125,41.805c-8.731,8.748-19.138,13.007-24.165,15.408a5.68,5.68,0,0,0,.713,10.527,29.277,29.277,0,0,0,9.389,1.291c9.73-.176,19.964-5.633,27.811-13.479s13.3-18.08,13.479-27.811a29.273,29.273,0,0,0-1.291-9.388Zm0,0" transform="translate(-83.848 -6.548)"/><path class="b" d="M201.482,19a1.3,1.3,0,0,1,.423.653,24.869,24.869,0,0,1,1.09,8.008c-.145,8.054-4.714,17.344-12.222,24.852s-16.8,12.076-24.852,12.222a4.294,4.294,0,0,0-4.211,4.087,31.843,31.843,0,0,0,4.289.206c9.73-.176,19.964-5.633,27.811-13.479s13.3-18.08,13.479-27.811A29.276,29.276,0,0,0,206,18.354a5.573,5.573,0,0,0-1.847-2.714,2.124,2.124,0,0,1-.793-1.666V8.695a1.074,1.074,0,0,0-1.074-1.074h-2.147a1.074,1.074,0,0,0-1.073,1.074v5.279A6.38,6.38,0,0,0,201.482,19Zm0,0" transform="translate(-138.915 -6.548)"/><path class="c" d="M56.565,215.736l-3.611-2.287a1.158,1.158,0,0,0-1.736,1.3l1.06,3.441a12.018,12.018,0,0,0,4.643,6.335l3.548,2.335c0-4.181-.162-8.757-3.9-11.127Zm0,0" transform="translate(-43.952 -183.204)"/><path class="d" d="M121.709,221.833l-.573-.573a1.074,1.074,0,0,0-1.1-.259c-5.591,1.864-9.721,6.112-11.944,12.285l2.02.727c1.935-5.377,5.292-8.993,9.982-10.756l.094.094a1.074,1.074,0,0,0,1.519-1.519Zm0,0" transform="translate(-92.857 -189.803)"/><path class="e" d="M22.457,298.637a11.291,11.291,0,0,0-5.939,1.493,11.286,11.286,0,0,0-5.939-1.493,10.707,10.707,0,0,0-9.153,5.526c-1.676,3.055-1.89,6.781-.554,10.893,2.044,6.271,7.468,11.888,12.62,12.182a8.557,8.557,0,0,0,1.482-.027,14.822,14.822,0,0,1,3.086,0,8.557,8.557,0,0,0,1.482.027c5.153-.295,10.577-5.911,12.621-12.182,1.336-4.112,1.122-7.839-.554-10.893A10.707,10.707,0,0,0,22.457,298.637Zm0,0" transform="translate(0 -256.536)"/><path class="f" d="M73.665,314.988a10.674,10.674,0,0,0-3.474-3.757q.234.353.439.722c1.676,3.055,1.89,6.781.554,10.894A20.412,20.412,0,0,1,63.6,333.18a11.157,11.157,0,0,1-6.191,1.848H48.957a11.441,11.441,0,0,0,6.591,3.035,8.5,8.5,0,0,0,1.482-.027,14.683,14.683,0,0,1,3.087,0,8.6,8.6,0,0,0,1.481.026c5.152-.294,10.577-5.911,12.62-12.182C75.555,321.769,75.34,318.043,73.665,314.988Zm0,0" transform="translate(-42.055 -267.361)"/><path class="g" d="M320.1,293.226a4.294,4.294,0,0,0-8.351,0,14.314,14.314,0,1,0,8.351,0Zm0,0" transform="translate(-259.094 -249.066)"/><path class="h" d="M341.414,328.684A14.315,14.315,0,0,1,321.4,348.7a14.315,14.315,0,1,0,20.015-20.016Zm0,0" transform="translate(-276.094 -282.354)"/><path class="d" d="M395.543,240.811v9.982a1.1,1.1,0,0,0,1.041,1.118,1.073,1.073,0,0,0,1.107-1.073V239.653A1.386,1.386,0,0,0,395.543,240.811Zm0,0" transform="translate(-339.787 -205.675)"/><path class="c" d="M404.795,250.353l-1.059-3.441a12.022,12.022,0,0,0-4.643-6.335l-1.4-.922a1.386,1.386,0,0,0-2.147,1.157v1.525a8.152,8.152,0,0,0,3.905,7.031l3.611,2.287A1.158,1.158,0,0,0,404.795,250.353Zm0,0" transform="translate(-339.787 -205.676)"/><path class="h" d="M350.654,353.461a1.073,1.073,0,1,1-1.073-1.074A1.073,1.073,0,0,1,350.654,353.461Zm0,0" transform="translate(-299.382 -302.716)"/><path class="h" d="M370.967,381.9a1.073,1.073,0,1,1-1.073-1.074A1.073,1.073,0,0,1,370.967,381.9Zm0,0" transform="translate(-316.831 -327.144)"/><path class="h" d="M330.343,404.242a1.074,1.074,0,1,1-1.074-1.074A1.073,1.073,0,0,1,330.343,404.242Zm0,0" transform="translate(-281.933 -346.339)"/><path class="c" d="M256.407,3.96a1.074,1.074,0,0,0-1.4-.581l-.643.266.492-.492a1.073,1.073,0,0,0-1.518-1.518l-.492.492.266-.643a1.074,1.074,0,1,0-1.984-.822l-.583,1.407,3.876,3.876,1.407-.583a1.074,1.074,0,0,0,.581-1.4Zm0,0" transform="translate(-215.226 0)"/><path class="e" d="M192.876,13.346c2.236-2.236,5.558-1.932,7.794.3s2.539,5.558.3,7.794-8.189,4.564-10.425,2.328.092-8.189,2.328-10.426Zm0,0" transform="translate(-162.908 -10.149)"/><path class="f" d="M200.815,17.122a6.535,6.535,0,0,0-1.769-1.267,5.131,5.131,0,0,1-.963,6.025c-1.7,1.7-5.544,3.45-8.274,3.212a3.375,3.375,0,0,0,.884,2.152c2.236,2.236,8.189-.092,10.425-2.328s1.933-5.558-.3-7.794Zm0,0" transform="translate(-163.053 -13.622)"/><g transform="translate(29.091 3.952)"><path class="a" d="M230.061,50.66a1.073,1.073,0,1,1-1.074-1.074A1.074,1.074,0,0,1,230.061,50.66Zm0,0" transform="translate(-224.878 -46.549)"/><path class="a" d="M208.518,72.2a1.073,1.073,0,1,1-1.073-1.073A1.074,1.074,0,0,1,208.518,72.2Zm0,0" transform="translate(-206.372 -65.056)"/><path class="a" d="M208.518,50.66a1.073,1.073,0,1,1-1.073-1.074A1.073,1.073,0,0,1,208.518,50.66Zm0,0" transform="translate(-206.372 -46.549)"/><path class="a" d="M230.061,72.2a1.073,1.073,0,1,1-1.074-1.073A1.074,1.074,0,0,1,230.061,72.2Zm0,0" transform="translate(-224.878 -65.056)"/><path class="a" d="M251.6,50.66a1.074,1.074,0,1,1-1.074-1.074A1.074,1.074,0,0,1,251.6,50.66Zm0,0" transform="translate(-243.381 -46.549)"/><path class="a" d="M230.061,29.117a1.073,1.073,0,1,1-1.074-1.074A1.074,1.074,0,0,1,230.061,29.117Zm0,0" transform="translate(-224.878 -28.043)"/></g><path class="i" d="M100.127,112.525a7.157,7.157,0,1,1-7.158-7.158A7.157,7.157,0,0,1,100.127,112.525Zm0,0" transform="translate(-73.716 -90.516)"/><path class="j" d="M101.226,111.129a7.157,7.157,0,0,1-9.656,9.656,7.157,7.157,0,1,0,9.656-9.656Zm0,0" transform="translate(-78.662 -95.465)"/><path class="k" d="M122.719,125.288l.314-.314a1.074,1.074,0,0,0-1.519-1.518l-.314.314-.314-.314a1.073,1.073,0,1,0-1.518,1.518l.314.314-.314.314a1.074,1.074,0,0,0,1.519,1.519l.314-.314.314.314a1.074,1.074,0,0,0,1.519-1.519Zm0,0" transform="translate(-102.271 -105.785)"/><path class="c" d="M295.487,104.328a1.1,1.1,0,0,0-1.431-.534l-.6.249.461-.46a1.1,1.1,0,0,0,.055-1.526,1.074,1.074,0,0,0-1.542-.024l-.492.492.267-.643a1.074,1.074,0,0,0-1.984-.822l-.583,1.407a1.069,1.069,0,0,0,.082.98,1.161,1.161,0,0,1-.147,1.443l-.009.009a1.11,1.11,0,0,0-.013,1.569,1.073,1.073,0,0,0,1.5-.018,1.176,1.176,0,0,1,1.495-.182,1.07,1.07,0,0,0,.97.075l1.407-.583a1.074,1.074,0,0,0,.568-1.433Zm0,0" transform="translate(-248.46 -86.246)"/><path class="f" d="M238.67,130.057a2.143,2.143,0,0,0-2.136.621l-3.522-1.1-2.607,2.736-1.106,4.127-.038-.012a2.147,2.147,0,1,0,1.517,2.631,2.119,2.119,0,0,0,.031-1,2.149,2.149,0,0,0,4.129-1.184,2.147,2.147,0,1,0,3.581-2.114,2.152,2.152,0,0,0-.935-.548,2.147,2.147,0,0,0,1.086-4.155Zm0,0" transform="translate(-194.621 -111.314)"/><path class="e" d="M242.421,110.983a2.149,2.149,0,0,0-2.629,2.629,2.147,2.147,0,1,0-2.581,2.644,2.149,2.149,0,1,0,1.469,1.506,2.149,2.149,0,0,0,2.074,1.59h.01a2.15,2.15,0,0,0,1.509-3.665,2.125,2.125,0,0,0-.953-.554,2.147,2.147,0,0,0,1.1-4.151Zm0,0" transform="translate(-201.409 -95.276)"/></g></svg>