<svg xmlns="http://www.w3.org/2000/svg" width="74.168" height="74.168" viewBox="0 0 74.168 74.168"><defs><style>.a{fill:#fb4;}</style></defs><g transform="translate(0)"><path class="a" d="M236.761,155.384l-3.89-5.186-2.163,15.14a6.558,6.558,0,0,1-1.844,3.687l-26.632,26.632a12.23,12.23,0,0,1-8.707,3.6,12.427,12.427,0,0,1-2.882-.339,7.967,7.967,0,0,0,6.715,3.688h31.869a7.976,7.976,0,0,0,7.967-7.967V156.688A2.174,2.174,0,0,0,236.761,155.384Z" transform="translate(-163.027 -128.44)"/><circle class="a" cx="2.173" cy="2.173" r="2.173" transform="translate(42.666 31.754)"/><circle class="a" cx="2.173" cy="2.173" r="2.173" transform="translate(18.083 31.754)"/><path class="a" d="M36.132,64.144,62.765,37.512a2.173,2.173,0,0,0,.615-1.229l3.073-21.511a2.173,2.173,0,0,0-.615-1.844L61.228,8.319l-6.146,6.146L56.619,16a2.173,2.173,0,1,1-3.073,3.073L47.4,12.928a2.173,2.173,0,1,1,3.073-3.073l1.537,1.537,6.146-6.146L53.546.636A2.175,2.175,0,0,0,51.7.022L30.191,3.095a2.173,2.173,0,0,0-1.229.615L2.33,30.341a7.976,7.976,0,0,0,0,11.267L24.865,64.144a7.976,7.976,0,0,0,11.267,0Zm8.707-36.736a6.519,6.519,0,1,1-6.519,6.519A6.526,6.526,0,0,1,44.839,27.408ZM20.256,40.445a6.519,6.519,0,1,1,6.519-6.519A6.526,6.526,0,0,1,20.256,40.445Zm7.171,11.019A2.174,2.174,0,0,1,25.364,48.6l10.243-30.73a2.173,2.173,0,0,1,4.123,1.374L29.487,49.979A2.174,2.174,0,0,1,27.426,51.465Z"/><path class="a" d="M409.139,3.709A2.173,2.173,0,0,0,406.066.637l-4.609,4.609,3.073,3.073Z" transform="translate(-343.302 0)"/></g></svg>