<svg xmlns="http://www.w3.org/2000/svg" width="57" height="68.512" viewBox="0 0 57 68.512"><defs><style>.a{fill:#ededed;}.b{fill:#dbdbdb;}.c{fill:#e49542;}.d{fill:#e28424;}.e{fill:#ffc250;}.f{fill:#ffd064;}</style></defs><g transform="translate(-43.009 0)"><g transform="translate(43.009 0)"><path class="a" d="M88.992,60.432a1.85,1.85,0,0,1-3.013,1.817,3.4,3.4,0,0,0-2.426-.962c-2.92,0-2.92,2.864-5.842,2.864s-2.92-2.864-5.842-2.864-2.92,2.864-5.842,2.864-2.922-2.864-5.842-2.864-2.922,2.864-5.843,2.864S51.42,61.287,48.5,61.287a3.4,3.4,0,0,0-2.426.962,1.85,1.85,0,0,1-3.013-1.819,11.541,11.541,0,0,1,1.7-4.14V7.861a11.524,11.524,0,0,1-1.7-4.14A1.85,1.85,0,0,1,46.072,1.9a3.389,3.389,0,0,0,2.426.962A3.435,3.435,0,0,0,50.993,1.84C51.9,1.017,52.6,0,54.339,0c2.922,0,2.922,2.864,5.843,2.864S63.1,0,66.024,0s2.922,2.864,5.842,2.864S74.787,0,77.709,0s2.922,2.864,5.842,2.864A3.39,3.39,0,0,0,85.979,1.9a1.85,1.85,0,0,1,3.013,1.819,11.523,11.523,0,0,1-1.7,4.14V56.291a11.538,11.538,0,0,1,1.7,4.142Z" transform="translate(-43.009 0)"/><path class="b" d="M44.761,20.671V17.157a11.524,11.524,0,0,1-1.7-4.14A1.85,1.85,0,0,1,46.073,11.2a3.389,3.389,0,0,0,2.426.962,3.435,3.435,0,0,0,2.495-1.024,31.276,31.276,0,0,0,1.422,5.233Z" transform="translate(-43.01 -9.295)"/><path class="b" d="M44.762,394.386V397.9a11.525,11.525,0,0,0-1.7,4.14,1.85,1.85,0,0,0,3.013,1.819A3.389,3.389,0,0,1,48.5,402.9,3.435,3.435,0,0,1,51,403.922a31.275,31.275,0,0,1,1.422-5.233Z" transform="translate(-43.011 -341.61)"/><path class="c" d="M93.144,49.066a169.872,169.872,0,0,0-34.876-.788c-2.552.205-4.311.974-6.863,1.295-1.559,16.189-2.351,31.873-.792,48.062a169.958,169.958,0,0,0,42.531,0,252.676,252.676,0,0,0,0-48.568Z" transform="translate(-48.862 -41.343)"/><path class="d" d="M56.172,101.964q-3.828-.307-7.655-.789a252.657,252.657,0,0,1,0-48.568q3.828-.481,7.655-.788A263.748,263.748,0,0,0,56.172,101.964Z" transform="translate(-46.767 -44.885)"/><path class="a" d="M120.146,135.907c0,8.811-7.76,15.954-17.332,15.954a17.694,17.694,0,0,1-14.719-7.528,14.892,14.892,0,0,1,.007-16.865,17.694,17.694,0,0,1,14.711-7.516C112.386,119.953,120.146,127.1,120.146,135.907Z" transform="translate(-79.797 -103.901)"/></g><g transform="translate(52.835 23.969)"><path class="e" d="M127.42,218.32c-4.177,1.3-10.922-.029-10.982-5.812s7.14-2.338,7.14-2.338Z" transform="translate(-116.437 -205.132)"/><path class="f" d="M131.614,183.246c2.915-.5,5.129,3.363,7.578,7.392s8.827,5.626,12.9,2.238,5.8-9.323.8-12.863-8.127,4.5-12.435,4.717-4.339-2.981-8.842-1.485Z" transform="translate(-129.583 -179.114)"/></g><g transform="translate(65.902 48.334)"><path class="e" d="M228.284,411.886c-5.4,1.679-14.122-.037-14.2-7.515s9.231-3.023,9.231-3.023Z" transform="translate(-214.083 -394.833)"/><path class="f" d="M233.707,366.531c3.769-.646,6.631,4.349,9.8,9.558s11.414,7.275,16.683,2.894,7.5-12.054,1.03-16.631-10.509,5.814-16.078,6.1-5.61-3.855-11.433-1.92Z" transform="translate(-231.081 -361.189)"/></g><g transform="translate(92.863 57.869)"><path class="e" d="M427.233,452.708a1.034,1.034,0,0,1-.524-1.926l.051-.03a1.034,1.034,0,0,1,1.046,1.784l-.051.03A1.029,1.029,0,0,1,427.233,452.708Z" transform="translate(-424.774 -448.179)"/><path class="e" d="M438.217,434.813a1.034,1.034,0,0,1-.524-1.926l.051-.03a1.034,1.034,0,0,1,1.046,1.784l-.051.03A1.029,1.029,0,0,1,438.217,434.813Z" transform="translate(-434.288 -432.678)"/><path class="e" d="M416.588,434.541a1.034,1.034,0,0,1-.524-1.926l.051-.03a1.034,1.034,0,0,1,1.046,1.784l-.051.03A1.029,1.029,0,0,1,416.588,434.541Z" transform="translate(-415.553 -432.443)"/></g></g></svg>