<svg xmlns="http://www.w3.org/2000/svg" width="59.554" height="62.167" viewBox="0 0 59.554 62.167"><defs><style>.a{fill:#407093;}.b{fill:#365e7d;}.c{fill:#d3effb;}.d{fill:#b1e4f9;}.e{fill:#80b4fb;}.f{fill:#61a2f9;}.g{fill:#4a80aa;}.h{fill:#95d6a4;}.i{fill:#78c2a4;}.j{fill:#ffd064;}.k{fill:#ffc250;}.l{fill:#dbdbdb;}.m{fill:#db5c6e;}.n{fill:#d64553;}.o{fill:#ededed;}</style></defs><g transform="translate(-10.761)"><g transform="translate(10.761 7.327)"><path class="a" d="M45.957,174.855A3.646,3.646,0,0,0,45.147,173l-16.154-2.214L12.839,173a3.648,3.648,0,0,0-.809,1.857,150.2,150.2,0,0,0-.961,28.437,9.638,9.638,0,0,0,9.617,8.921H37.3a9.638,9.638,0,0,0,9.617-8.921A150.189,150.189,0,0,0,45.957,174.855Z" transform="translate(-10.761 -157.374)"/><path class="b" d="M20.1,180.267c-.246,3.554-.989,15.847-.5,28.438.194,5.032,2.4,8.921,5.043,8.921H20.688a9.638,9.638,0,0,1-9.616-8.921,150.187,150.187,0,0,1,.961-28.438,3.654,3.654,0,0,1,.809-1.857l4.415-1.467,3.268,1.467a5.7,5.7,0,0,0-.424,1.857Z" transform="translate(-10.763 -162.786)"/><path class="c" d="M60.187,93.906H27.879a29.655,29.655,0,0,1,8.06-6.717V83.24l8.093-2.478,8.093,2.478v3.949A29.651,29.651,0,0,1,60.187,93.906Z" transform="translate(-25.8 -78.283)"/><path class="d" d="M39.784,101.183H35.934v3.948a29.658,29.658,0,0,0-8.06,6.717h7.682a23.3,23.3,0,0,1,4.228-6.716v-3.949Z" transform="translate(-25.796 -96.224)"/><path class="e" d="M96.769,60.35H81.945a2.478,2.478,0,1,0,0,4.957H96.769a2.478,2.478,0,1,0,0-4.957Z" transform="translate(-71.125 -60.349)"/><path class="f" d="M85.162,64.576a2.477,2.477,0,0,0,1.754.725H81.945a2.479,2.479,0,0,1,0-4.957h4.971a2.479,2.479,0,0,0-1.754,4.232Z" transform="translate(-71.125 -60.344)"/><g transform="translate(4.743 31.242)"><circle class="g" cx="2.698" cy="2.698" r="2.698" transform="translate(0 7.102)"/><circle class="g" cx="1.925" cy="1.925" r="1.925" transform="translate(5.396)"/><circle class="g" cx="1.925" cy="1.925" r="1.925" transform="translate(12.517 14.604)"/></g></g><g transform="translate(35.194)"><path class="h" d="M239.684,49.181a2.779,2.779,0,0,0,2.108,2.572,3.917,3.917,0,0,1,2.515,3.357c.361,4.226.613,12.233-1.627,19.348a4.171,4.171,0,0,1-3.978,2.923H224.285a4.17,4.17,0,0,1-3.976-2.923c-2.24-7.115-1.99-15.121-1.627-19.348a3.914,3.914,0,0,1,2.515-3.357,2.78,2.78,0,0,0,2.108-2.572c0-1.136-1.173-1.89-2.265-2.347a3.928,3.928,0,0,1-2.354-2.889c-.074-.393-.143-.789-.208-1.186,2.707-2.707.8-4.592.705-6.129a3.853,3.853,0,0,1,.5-2.166c.209-.364-1.08-2.038-.842-2.381a25.7,25.7,0,0,1,7.824-6.912V17.317h9.66v7.854a25.7,25.7,0,0,1,7.824,6.912c.238.343-1.981,2.879-1.773,3.243a3.852,3.852,0,0,1,.5,2.166c-.1,1.537,1.293,2.683,1.636,5.267-.065.4-.134.793-.208,1.186a3.928,3.928,0,0,1-2.354,2.889C240.857,47.291,239.684,48.045,239.684,49.181Z" transform="translate(-217.66 -15.214)"/><path class="i" d="M286.311,34.349h9.64v2.608h-9.64Z" transform="translate(-277.287 -30.178)"/><path class="i" d="M223.7,45.088v4.48a18.667,18.667,0,0,0-5.766,7.972,6.124,6.124,0,0,0-.3,2.169c.065,1.744.231,5.309.6,8.634a4.08,4.08,0,0,0,1.389,2.885,2.87,2.87,0,0,1,1.345,2.35,2.836,2.836,0,0,1-1.232,2.562,4.184,4.184,0,0,0-1.5,3.311c-.246,4.8-.413,14.574,1.608,22.327h-1.234a4.157,4.157,0,0,1-3.968-2.895c-2.26-7.154-2-15.215-1.63-19.432a3.9,3.9,0,0,1,2.537-3.311,2.767,2.767,0,0,0,2.081-2.562c0-1.137-1.179-1.894-2.273-2.35a3.913,3.913,0,0,1-2.345-2.885A75.017,75.017,0,0,1,212,59.709a3.862,3.862,0,0,1,.5-2.169c2.809-4.885,8.5-7.972,8.5-7.972v-4.48Z" transform="translate(-211.992 -39.613)"/><path class="j" d="M239.659,142.155c-.1,1.537-.326,4.492-.808,7.449H212.817c-.482-2.957-.712-5.911-.808-7.449a3.853,3.853,0,0,1,.5-2.166c.209-.364.434-.718.672-1.061h25.308c.238.343.463.7.672,1.061A3.854,3.854,0,0,1,239.659,142.155Z" transform="translate(-212 -122.059)"/><path class="j" d="M287.548,0h-7.43a2.1,2.1,0,0,0-2.1,2.1V5.476H289.65V2.1A2.1,2.1,0,0,0,287.548,0Z" transform="translate(-269.999)"/><g transform="translate(0.001 0.001)"><path class="k" d="M284.285,0a2.1,2.1,0,0,0-2.1,2.1V5.48h-4.167V2.106a2.1,2.1,0,0,1,2.1-2.1h4.167Z" transform="translate(-270 -0.005)"/><path class="k" d="M217.648,142.155c.058,1.537.194,4.492.479,7.449h-5.31c-.482-2.957-.712-5.911-.808-7.449a3.853,3.853,0,0,1,.5-2.166c.209-.364.434-.718.672-1.061h5.173c-.148.343-.285.7-.409,1.058a6.134,6.134,0,0,0-.3,2.169Z" transform="translate(-212.001 -122.06)"/></g></g><g transform="translate(51.883 33.508)"><path class="l" d="M447.189,280.785a.939.939,0,0,1-.875-1.275l1.131-2.94a.938.938,0,0,1,1.751.674l-1.131,2.94A.938.938,0,0,1,447.189,280.785Z" transform="translate(-434.496 -275.968)"/><path class="m" d="M367.759,319.53q-.165,3.01-.577,6.005a3.05,3.05,0,0,1-3.019,2.637H353.148a3.049,3.049,0,0,1-3.02-2.637,73.822,73.822,0,0,1,0-20.132,3.048,3.048,0,0,1,3.02-2.636h11.015a3.049,3.049,0,0,1,3.019,2.636q.336,2.447.508,4.907c.1,1.45-1.962,3.406-1.946,4.859C365.762,316.791,367.848,317.91,367.759,319.53Z" transform="translate(-349.439 -299.514)"/><path class="n" d="M354.518,326.546a3.348,3.348,0,0,0,.694,1.627h-2.06a3.05,3.05,0,0,1-3.019-2.637,73.914,73.914,0,0,1,0-20.132,3.049,3.049,0,0,1,3.019-2.636h2.06a3.347,3.347,0,0,0-.694,1.627A81.283,81.283,0,0,0,354.518,326.546Z" transform="translate(-349.443 -299.515)"/><path class="o" d="M434.448,366.36a5.706,5.706,0,1,1-.069-9.22A73.878,73.878,0,0,1,434.448,366.36Z" transform="translate(-416.129 -346.343)"/></g><path class="j" d="M282.862,39.248H271.227a.938.938,0,1,1,0-1.876h11.634a.938.938,0,0,1,0,1.876Z" transform="translate(-228.016 -32.834)"/><path class="k" d="M275.3,39.248h-4.073a.938.938,0,1,1,0-1.876H275.3a.938.938,0,1,0,0,1.876Z" transform="translate(-228.016 -32.834)"/><path class="o" d="M372.534,296.919h-14.76a.938.938,0,1,1,0-1.876h14.76a.938.938,0,0,1,0,1.876Z" transform="translate(-304.055 -259.219)"/><path class="l" d="M362.323,296.919h-4.549a.938.938,0,1,1,0-1.876h4.549a.938.938,0,1,0,0,1.876Z" transform="translate(-304.055 -259.219)"/></g></svg>