<svg xmlns="http://www.w3.org/2000/svg" width="77.55" height="77.55" viewBox="0 0 77.55 77.55"><defs><style>.a{fill:#fb4;}.b{fill:#fff;}</style></defs><g transform="translate(0)"><path class="a" d="M48.014,0A29.519,29.519,0,0,0,25.6,48.742l.608,2.3,2.6.911A29.53,29.53,0,1,0,48.014,0ZM25.066,55.7l-.983-2.381-2.23-.832-1.606-1.607a2.273,2.273,0,0,0-3.213,0L.666,67.245a2.272,2.272,0,0,0,0,3.213l6.426,6.426a2.272,2.272,0,0,0,3.213,0L26.673,60.516a2.272,2.272,0,0,0,0-3.213Z" transform="translate(0)"/></g><g transform="translate(21.853 15.839)"><path class="b" d="M185.916,114.666a2.272,2.272,0,0,0-1.843-.943h-3.107l-3.948-7.9a2.272,2.272,0,1,0-4.064,2.032l2.932,5.865H165l2.932-5.865a2.272,2.272,0,1,0-4.064-2.032l-3.948,7.9h-3.107a2.272,2.272,0,0,0-2.156,2.99l4.544,13.632a2.272,2.272,0,0,0,2.155,1.554h18.176a2.272,2.272,0,0,0,2.155-1.554l4.544-13.632A2.272,2.272,0,0,0,185.916,114.666Zm-37.894,22.807-3.742,3.742,3.213,3.213,3.742-3.742a29.766,29.766,0,0,1-3.213-3.213Z" transform="translate(-144.28 -104.569)"/></g></svg>