<svg xmlns="http://www.w3.org/2000/svg" width="20.139" height="20.139" viewBox="0 0 20.139 20.139"><g transform="translate(0 0)"><path d="M15.97,20.139a1.772,1.772,0,0,1-1.771-1.77,1.751,1.751,0,0,1,.1-.59H9.378a1.77,1.77,0,1,1-3.314-.062,1.77,1.77,0,0,1-.389-3.258,2.956,2.956,0,0,1-.707-1.369L2.8,2.953A2.293,2.293,0,0,0,.59,1.18.59.59,0,1,1,.59,0,3.452,3.452,0,0,1,3.951,2.705l.692,3.234H19.55a.59.59,0,0,1,.566.755L18.2,13.28a2.948,2.948,0,0,1-2.833,2.139H6.53a.59.59,0,1,0,0,1.18h11.8a.59.59,0,1,1,0,1.18h-.692a1.77,1.77,0,0,1-1.668,2.36ZM15.379,8.283a.589.589,0,0,0-.582.495l-.589,3.579a.589.589,0,0,0,.486.678.545.545,0,0,0,.1.008.588.588,0,0,0,.582-.494l.589-3.579a.589.589,0,0,0-.486-.679A.6.6,0,0,0,15.379,8.283Zm-3.539,0a.591.591,0,0,0-.59.59v3.579a.59.59,0,0,0,1.18,0V8.873A.591.591,0,0,0,11.84,8.283Zm-3.54,0a.6.6,0,0,0-.1.008.59.59,0,0,0-.486.678l.59,3.579a.588.588,0,0,0,.581.495.545.545,0,0,0,.1-.008.591.591,0,0,0,.487-.679l-.59-3.579A.587.587,0,0,0,8.3,8.283Z" transform="translate(0 0)"/></g></svg>