<svg xmlns="http://www.w3.org/2000/svg" width="67.051" height="69.291" viewBox="0 0 67.051 69.291"><defs><style>.a{fill:#a7e9a6;}.a,.b,.c,.d,.e,.f,.g,.h,.i,.j,.k,.l,.m{fill-rule:evenodd;}.b{fill:#ffe07d;}.c{fill:#365e7d;}.d{fill:#f9f6f6;}.e{fill:#9dc6fb;}.f{fill:#ffd064;}.g{fill:#dddaec;}.h{fill:#80b4fb;}.i{fill:#2b4d66;}.j{fill:#fe93d3;}.k{fill:#fe4eb7;}.l{fill:#d0cee7;}.m{fill:#7fdbae;}</style></defs><g transform="translate(-8.276)"><g transform="translate(8.276 12.066)"><path class="a" d="M15.492,90.554c-9.1,5.656-8.331,25.46-4.569,39.961L29.81,133.08l11.809-34c-1.134-3.782-2.988-6.806-5.754-8.525l-10.208-1.4Z" transform="translate(-8.276 -89.159)"/></g><g transform="translate(10.923 53.423)"><path class="a" d="M27.832,394.747c1.51,5.806,3.5,10.762,5.525,13.616a4.231,4.231,0,0,0,4.1,2.253H47.719q.19,0,.368-.012c-.557-.083.486-.818.545-1.4l.976-9.331-3.268-5.13Z" transform="translate(-27.832 -394.747)"/></g><g transform="translate(50.306 33.234)"><path class="b" d="M320.621,250.748l-1.782,2.6.889,3.434,10.11,1.4,10.766-1.4c2-4.391-2.075-9.8-4.885-11.209C334.6,251.214,326.949,250.431,320.621,250.748Z" transform="translate(-318.839 -245.574)"/></g><g transform="translate(17.211 0)"><path class="c" d="M74.294.656V7.77l8.469,1.593L91.229,7.77V.656A.66.66,0,0,0,90.569,0H74.954a.66.66,0,0,0-.66.656Z" transform="translate(-74.294 0)"/></g><g transform="translate(15.492 7.77)"><path class="d" d="M63.31,57.414a1.726,1.726,0,0,0-1.719,1.723v3.968H81.964V59.137a1.726,1.726,0,0,0-1.719-1.723H63.31Z" transform="translate(-61.591 -57.414)"/></g><g transform="translate(49.725 44.443)"><path class="d" d="M336.892,328.4H316.017l-1.47,2.446.794,2.114h23.551v-4.118a.441.441,0,0,0-.439-.443Z" transform="translate(-314.547 -328.396)"/></g><g transform="translate(49.109 49.004)"><path class="e" d="M311.4,362.1l-1.411,9.549v6.015h19.852a10.705,10.705,0,0,0,6.367-9.758v-5.122a.684.684,0,0,0-.684-.684H311.4Z" transform="translate(-309.992 -362.097)"/></g><g transform="translate(43.911 64.568)"><path class="c" d="M292.425,477.1H272.573v3.561a1.169,1.169,0,0,1-.984,1.15,1.754,1.754,0,0,0,.206.012H290.86a1.569,1.569,0,0,0,1.565-1.565Z" transform="translate(-271.589 -477.102)"/></g><g transform="translate(65.921 33.234)"><path class="f" d="M434.221,248.115c1.9,2.348,3.272,5.735,1.937,8.667h4.213c2-4.391-2.075-9.8-4.885-11.209A5.044,5.044,0,0,1,434.221,248.115Z" transform="translate(-434.221 -245.574)"/></g><g transform="translate(69.419 44.443)"><path class="g" d="M460.5,328.839v4.118h4.213v-4.118a.441.441,0,0,0-.439-.443h-4.213a.445.445,0,0,1,.415.292A.46.46,0,0,1,460.5,328.839Z" transform="translate(-460.065 -328.396)"/></g><g transform="translate(64.747 49.004)"><path class="h" d="M431.919,362.781V367.9a10.709,10.709,0,0,1-6.371,9.758h4.213a10.705,10.705,0,0,0,6.367-9.758v-5.122a.684.684,0,0,0-.684-.684h-4.209A.687.687,0,0,1,431.919,362.781Z" transform="translate(-425.548 -362.097)"/></g><g transform="translate(63.182 64.568)"><path class="i" d="M415.548,477.1v3.158a1.569,1.569,0,0,1-1.565,1.565H418.2a1.569,1.569,0,0,0,1.565-1.565V477.1Z" transform="translate(-413.983 -477.102)"/></g><g transform="translate(24.893 21.986)"><path class="d" d="M131.07,163.323l.68,4.6,14.1,5.257,14.026-5.257.68-4.6c.067-.451-.115-.862-.818-.862H131.888C131.189,162.461,131,162.872,131.07,163.323Z" transform="translate(-131.057 -162.461)"/></g><g transform="translate(30.19 54.81)"><path class="d" d="M170.2,408.74v9.576a1.166,1.166,0,0,0,.988,1.15,1.257,1.257,0,0,0,.174.012h16.6a1.23,1.23,0,0,0,.174-.012,1.169,1.169,0,0,0,.988-1.15V408.74c-3.1,0-5.612-3.743-8.715-3.743C177.2,405,173.4,408.74,170.2,408.74Z" transform="translate(-170.197 -404.997)"/></g><g transform="translate(25.585 27.444)"><path class="c" d="M136.713,206.415l3.308,22.354.759,5.13H159.7l1.411-9.549.676-4.561.893-6.035,1.62-10.964H136.175Z" transform="translate(-136.175 -202.791)"/></g><g transform="translate(34.304 37.341)"><path class="j" d="M205.94,275.917a5.453,5.453,0,0,0,0,10.9,5.265,5.265,0,0,0,2-.4l.028-.012a5.427,5.427,0,0,0,3.063-3.395,5.515,5.515,0,0,0-1.838-5.976A5.254,5.254,0,0,0,205.94,275.917Z" transform="translate(-200.597 -275.917)"/></g><g transform="translate(44.374 58.553)"><path class="g" d="M275.006,443.391h3.573a1.234,1.234,0,0,0,.174-.012,1.169,1.169,0,0,0,.988-1.15v-9.576H276.16v9.576a1.165,1.165,0,0,1-.984,1.15A1.216,1.216,0,0,1,275.006,443.391Z" transform="translate(-275.006 -432.653)"/></g><g transform="translate(49.994 21.986)"><path class="g" d="M317.351,163.323l-.68,4.6h3.577l.68-4.6c.067-.451-.115-.862-.818-.862h-3.577C317.233,162.461,317.418,162.872,317.351,163.323Z" transform="translate(-316.533 -162.461)"/></g><g transform="translate(45.528 27.444)"><path class="i" d="M287.928,204.21l-1.415,9.545-.055.391-.838,5.644-.672,4.561-1.229,8.308-.186,1.241h3.581l1.411-9.549.676-4.561.893-6.035,1.62-10.964h-3.577Z" transform="translate(-283.533 -202.791)"/></g><g transform="translate(37.857 37.341)"><path class="k" d="M230.408,281.367a5.492,5.492,0,0,1-3.316,5.047l-.024.012c-.071.028-.142.055-.217.083a5.283,5.283,0,0,0,3.794-.083l.028-.012a5.427,5.427,0,0,0,3.063-3.395,5.584,5.584,0,0,0-.178-3.79,5.479,5.479,0,0,0-1.66-2.186,5.277,5.277,0,0,0-5.047-.814,5.319,5.319,0,0,1,1.466.814,5.487,5.487,0,0,1,1.664,2.186A5.564,5.564,0,0,1,230.408,281.367Z" transform="translate(-226.851 -275.917)"/></g><g transform="translate(35.15 63.766)"><path class="l" d="M207.531,471.173a.686.686,0,0,0-.684.684V476.7h9v-4.842a.687.687,0,0,0-.684-.684h-7.628Z" transform="translate(-206.847 -471.173)"/></g><g transform="translate(27.854 0)"><path class="i" d="M153.594.656V7.77h5.636V.656A.66.66,0,0,0,158.57,0h-5.632a.66.66,0,0,1,.656.656Z" transform="translate(-152.938 0)"/></g><g transform="translate(28.51 7.77)"><path class="g" d="M159.229,58.2a1.706,1.706,0,0,1,.281.937v3.968h5.632V59.137a1.726,1.726,0,0,0-1.719-1.723h-5.636A1.721,1.721,0,0,1,159.229,58.2Z" transform="translate(-157.786 -57.414)"/></g><g transform="translate(30.233 13.461)"><path class="m" d="M170.518,99.468c2.763,1.719,4.616,4.743,5.75,8.525H181.9c-1.134-3.782-2.988-6.806-5.754-8.525Z" transform="translate(-170.518 -99.468)"/></g><g transform="translate(54.732 53.593)"><path class="b" d="M354.677,396A3.194,3.194,0,1,0,357.8,399.2,3.164,3.164,0,0,0,354.677,396Z" transform="translate(-351.547 -396.003)"/></g><g transform="translate(8.277 31.069)"><path class="d" d="M8.339,229.571a78.905,78.905,0,0,0,2.589,22.354H29.436l-3.308-22.354Z" transform="translate(-8.282 -229.571)"/></g></g></svg>