<svg xmlns="http://www.w3.org/2000/svg" width="15.25" height="13.079" viewBox="0 0 15.25 13.079"><defs><style>.a{fill:#3bd28c;}</style></defs><g transform="translate(0)"><g transform="translate(0 0)"><path class="a" d="M.916,37.311a1.09,1.09,0,0,1,.189-.014H11.864l-.235-.109a2.182,2.182,0,0,1-.616-.436L8,33.734a1.129,1.129,0,0,1-.158-1.446,1.091,1.091,0,0,1,1.637-.142L14.93,37.6a1.091,1.091,0,0,1,0,1.543h0L9.474,44.6a1.091,1.091,0,0,1-1.637-.109A1.129,1.129,0,0,1,8,43.047l3.012-3.023a2.182,2.182,0,0,1,.546-.4l.327-.147H1.165a1.129,1.129,0,0,1-1.151-.917A1.091,1.091,0,0,1,.916,37.311Z" transform="translate(0 -31.842)"/></g></g></svg>