<svg xmlns="http://www.w3.org/2000/svg" width="26.049" height="26.049" viewBox="0 0 26.049 26.049"><defs><style>.a{fill:#555;}</style></defs><g transform="translate(0 0)"><path class="a" d="M26,6.218,24.141.636A.93.93,0,0,0,23.258,0H2.791a.93.93,0,0,0-.883.636L.047,6.218A.948.948,0,0,0,0,6.487v.955a4.632,4.632,0,0,0,1.861,3.7V23.258a2.791,2.791,0,0,0,2.791,2.791H21.4a2.791,2.791,0,0,0,2.791-2.791V11.143a4.632,4.632,0,0,0,1.861-3.7V6.487A.946.946,0,0,0,26,6.218ZM19.537,1.861h3.051l1.241,3.721H19.537Zm-5.582,0h3.721V5.582H13.955Zm-5.582,0h3.721V5.582H8.373Zm-4.911,0H6.512V5.582H2.221ZM14.885,24.188H11.164V16.746h3.721v7.443Zm7.443-.93a.93.93,0,0,1-.93.93H16.746V15.815a.93.93,0,0,0-.93-.93H10.233a.93.93,0,0,0-.93.93v8.373H4.652a.93.93,0,0,1-.93-.93V12a4.6,4.6,0,0,0,3.721-.854,4.715,4.715,0,0,0,5.582,0,4.715,4.715,0,0,0,5.582,0A4.6,4.6,0,0,0,22.328,12ZM21.4,10.233a2.749,2.749,0,0,1-2.09-.966.93.93,0,0,0-1.4,0,2.807,2.807,0,0,1-4.181,0,.962.962,0,0,0-1.36-.041l-.041.041a2.807,2.807,0,0,1-4.181,0,.962.962,0,0,0-1.36-.041l-.041.041a2.749,2.749,0,0,1-2.09.966A2.791,2.791,0,0,1,1.861,7.443H24.188A2.791,2.791,0,0,1,21.4,10.233Z" transform="translate(0 0)"/></g></svg>