<svg xmlns="http://www.w3.org/2000/svg" width="20.881" height="20.881" viewBox="0 0 20.881 20.881"><defs><style>.a{fill:#fff;}</style></defs><g transform="translate(0 0)"><g transform="translate(0 0)"><path class="a" d="M20.7,4.746a.816.816,0,0,0-.633-.3h-.294L15.565.239a.816.816,0,0,0-1.154,0L12.643,2.007,10.875.239a.816.816,0,0,0-1.154,0L5.515,4.445H5.291L5.23,3.889l0-.018A4.463,4.463,0,0,0,.816,0a.816.816,0,0,0,0,1.631A2.827,2.827,0,0,1,3.61,4.075l.97,8.908A2.45,2.45,0,0,0,3.14,15.212c0,.007,0,.014,0,.02s0,.014,0,.02A2.45,2.45,0,0,0,5.587,17.7H5.92a2.406,2.406,0,1,0,4.555,0h3.52a2.406,2.406,0,1,0,2.277-1.631H5.587a.817.817,0,0,1-.816-.816c0-.007,0-.014,0-.02s0-.013,0-.02a.817.817,0,0,1,.816-.816H16a3.735,3.735,0,0,0,3.385-2.282.816.816,0,0,0-1.494-.656A2.133,2.133,0,0,1,16,12.765H6.2L5.469,6.076H19.062l-.4,1.913a.816.816,0,1,0,1.6.333l.6-2.9A.816.816,0,0,0,20.7,4.746ZM16.272,17.7a.775.775,0,1,1-.775.775A.776.776,0,0,1,16.272,17.7ZM8.2,17.7a.775.775,0,1,1-.775.775A.776.776,0,0,1,8.2,17.7ZM10.2,4.445H7.822L10.3,1.969l1.192,1.192Zm2.307,0,2.476-2.476,2.476,2.476Z" transform="translate(0 0)"/></g></g></svg>