<svg xmlns="http://www.w3.org/2000/svg" width="70.78" height="69.795" viewBox="0 0 70.78 69.795"><defs><style>.a{fill:#ea9d2d;}.b{fill:#79a73a;}.c{fill:#89b140;}.d{fill:#6f9935;}.e{fill:#f26b32;}.f{fill:#f27332;}.g{fill:#d85021;}.h{fill:#f4ca62;}.i{fill:#fbb540;}.j{fill:#f7ba61;}.k{fill:#c48426;}</style></defs><g transform="translate(0 -3.561)"><path class="a" d="M98.87,352.257H94.1A25.055,25.055,0,0,1,69.043,327.2h54.882A25.055,25.055,0,0,1,98.87,352.257Z" transform="translate(-59.498 -278.9)"/><g transform="translate(0 3.561)"><path class="b" d="M446.928,64.6a1.193,1.193,0,0,1-1.091-1.675l2.891-6.548a1.193,1.193,0,0,1,2.183.964l-2.891,6.548A1.193,1.193,0,0,1,446.928,64.6Z" transform="translate(-384.117 -48.461)"/><path class="b" d="M434.724,59.371a1.194,1.194,0,0,1-1.153-.888L431.615,51.1a1.193,1.193,0,1,1,2.307-.611l1.958,7.384a1.192,1.192,0,0,1-1.156,1.5Z" transform="translate(-371.913 -43.236)"/><path class="b" d="M446.928,83.393a1.193,1.193,0,0,1-.552-2.251l6.774-3.53a1.193,1.193,0,1,1,1.1,2.116l-6.774,3.53A1.182,1.182,0,0,1,446.928,83.393Z" transform="translate(-384.114 -67.258)"/><path class="b" d="M27.916,14.994A11.913,11.913,0,0,0,17.9,9.527a11.783,11.783,0,0,0-1.516.107A8.348,8.348,0,1,0,6.073,19.941a11.785,11.785,0,0,0-.107,1.516,11.912,11.912,0,0,0,5.468,10.019A14.911,14.911,0,1,0,27.916,14.994Z" transform="translate(0 -3.561)"/></g><path class="c" d="M40.431,25.231A14.92,14.92,0,0,0,27.916,14.993,11.914,11.914,0,0,0,17.9,9.526a11.783,11.783,0,0,0-1.516.107A8.348,8.348,0,1,0,6.073,19.941a11.785,11.785,0,0,0-.107,1.516,11.912,11.912,0,0,0,5.468,10.019,14.828,14.828,0,0,0,1.68,5.375c.733.181,1.477.338,2.238.46C26.534,39.12,36.934,33.857,40.431,25.231Z"/><g transform="translate(9.896 13.456)"><rect class="d" width="2.386" height="40.494" transform="translate(30.321 28.633) rotate(135)"/><path class="d" d="M164.893,177.084h-9.545V174.7H163.7v-7.159h2.386v8.352A1.192,1.192,0,0,1,164.893,177.084Z" transform="translate(-143.768 -154.765)"/><path class="d" d="M120.548,132.739H112.2v-2.386h7.159v-5.965h2.386v7.159A1.192,1.192,0,0,1,120.548,132.739Z" transform="translate(-106.581 -117.579)"/><path class="d" d="M83.639,88.394H77.674V86.007h4.772V81.235h2.386V87.2A1.192,1.192,0,0,1,83.639,88.394Z" transform="translate(-76.832 -80.392)"/></g><path class="e" d="M319.326,137.008l7.656-25.53A8.352,8.352,0,0,1,338,107.21h0a8.352,8.352,0,0,1,4.268,11.013L331,137.008" transform="translate(-275.182 -88.706)"/><path class="f" d="M325.026,134.615a23.761,23.761,0,0,0,15.18-5.45l6.563-10.949A8.352,8.352,0,0,0,342.5,107.2h0a8.352,8.352,0,0,0-11.013,4.268l-6.932,23.121C324.713,134.594,324.867,134.615,325.026,134.615Z" transform="translate(-279.689 -88.699)"/><g transform="translate(47.311 22.158)"><rect class="g" width="2.386" height="7.158" transform="translate(12.613 2.89) rotate(113.817)"/><path class="g" d="M414.438,209.88l-.963,2.183,5.593,2.47,1.237-2.063Z" transform="translate(-403.626 -199.956)"/><path class="g" d="M342.231,236.47l5.866,2.589.963-2.183-6.14-2.71Z" transform="translate(-342.231 -220.884)"/><rect class="g" width="2.386" height="2.385" transform="translate(8.627 8.962) rotate(113.822)"/></g><path class="h" d="M245.826,19.862A9.467,9.467,0,0,0,227.377,15.6Z" transform="translate(-195.944 -4.113)"/><g transform="translate(37.1 4.223)"><path class="i" d="M274.041,8.591a9.41,9.41,0,0,0-5.67.452l3.485,8.686h0l7.149-6.171A9.412,9.412,0,0,0,274.041,8.591Z" transform="translate(-268.371 -8.348)"/><path class="i" d="M368.614,370.354H353.848v2.386H367.9A24.7,24.7,0,0,0,368.614,370.354Z" transform="translate(-342.031 -320.31)"/></g><path class="j" d="M128.9,327.2v8.352c0,.926-1.6,2.82-3.579,2.82h0c-1.977,0-3.579-1.893-3.579-2.82v-2.386h0a2.385,2.385,0,0,0-2.386-2.386h0a2.385,2.385,0,0,0-2.386,2.386,2.385,2.385,0,0,1-2.386,2.386h0a2.385,2.385,0,0,1-2.386-2.386V327.2h16.7Z" transform="translate(-96.685 -278.9)"/><path class="g" d="M372.55,135.961l-.346,1.153,7.5,3.312.965-2.183-7.553-3.335A8.205,8.205,0,0,0,372.55,135.961Z" transform="translate(-320.75 -113.188)"/><path class="i" d="M381.789,404.876H371.108v2.386h9.382A25.015,25.015,0,0,0,381.789,404.876Z" transform="translate(-319.805 -345.836)"/><path class="k" d="M157.281,482.55a24.9,24.9,0,0,0,12.857,3.579h4.772a24.9,24.9,0,0,0,12.857-3.579Z" transform="translate(-135.538 -412.773)"/></g></svg>