<svg xmlns="http://www.w3.org/2000/svg" width="228.932" height="47" viewBox="0 0 228.932 47"><defs><style>.a{fill:#3bd28c;font-size:33px;font-family:Poppins-ExtraBold, Poppins;font-weight:800;letter-spacing:0.06em;}.b{fill:#fb4;}</style></defs><g transform="translate(-66.969 -28)"><text class="a" transform="translate(122.9 63)"><tspan x="0" y="0">GROC</tspan><tspan class="b" y="0">ERY</tspan></text><g transform="translate(66.969 29.27)"><path class="b" d="M41.961,43.665H37.5L27.753,31.475a1.266,1.266,0,1,0-1.978,1.582l8.485,10.607H8.967l8.485-10.607a1.266,1.266,0,1,0-1.978-1.582L5.724,43.665H1.266A1.266,1.266,0,0,0,0,44.931v2.533A1.266,1.266,0,0,0,1.266,48.73H41.961a1.266,1.266,0,0,0,1.266-1.266V44.931A1.266,1.266,0,0,0,41.961,43.665Z" transform="translate(0 -31)"/><path class="b" d="M38.489,287.812a1.266,1.266,0,0,0,1.218.919H65.2a1.266,1.266,0,0,0,1.218-.919L71.226,271H33.686Zm19.767-5.622,1.266-7.6a1.266,1.266,0,0,1,2.5.416l-1.266,7.6a1.266,1.266,0,1,1-2.5-.416ZM51.189,274.8a1.266,1.266,0,0,1,2.533,0v7.6a1.266,1.266,0,0,1-2.533,0Zm-7.174-1.249a1.266,1.266,0,0,1,1.457,1.041l1.266,7.6a1.266,1.266,0,1,1-2.5.416l-1.266-7.6A1.266,1.266,0,0,1,44.016,273.55Z" transform="translate(-30.842 -250.737)"/></g></g></svg>