<svg xmlns="http://www.w3.org/2000/svg" width="18.185" height="18.185" viewBox="0 0 18.185 18.185"><defs><style>.a{fill:#3bd28c;}</style></defs><g transform="translate(9.627 1.096)"><path class="a" d="M273.247,33.033a4.055,4.055,0,0,0-2.2-2.175v3.688c.961-.013,1.9-.07,2.781-.167A9.315,9.315,0,0,0,273.247,33.033Z" transform="translate(-271.043 -30.858)"/></g><g transform="translate(9.627 5.657)"><path class="a" d="M274.124,159.284a30.153,30.153,0,0,1-3.083.2v2.705H274.5A14.369,14.369,0,0,0,274.124,159.284Z" transform="translate(-271.041 -159.284)"/></g><g transform="translate(5.096 5.633)"><path class="a" d="M143.856,158.594a14.352,14.352,0,0,0-.385,2.925h3.462V158.81A29.689,29.689,0,0,1,143.856,158.594Z" transform="translate(-143.471 -158.594)"/></g><g transform="translate(5.785 1.096)"><path class="a" d="M163.441,33.033a9.29,9.29,0,0,0-.57,1.323c.875.1,1.81.166,2.773.186V30.858A4.055,4.055,0,0,0,163.441,33.033Z" transform="translate(-162.871 -30.858)"/></g><g transform="translate(5.098 9.627)"><path class="a" d="M143.528,271.042a13.913,13.913,0,0,0,.536,3.429,28.8,28.8,0,0,1,2.925-.234v-3.2Z" transform="translate(-143.528 -271.042)"/></g><g transform="translate(13.772 4.616)"><path class="a" d="M391.012,129.975c-.555.22-.778.31-.85.341l.086-.027c.018-.006-.189.072-.086.027a17.006,17.006,0,0,1-2.408.553,15.523,15.523,0,0,1,.386,3.048h4.027A9.034,9.034,0,0,0,391.012,129.975Z" transform="translate(-387.754 -129.975)"/></g><g transform="translate(0 9.627)"><path class="a" d="M4.029,271.041H0a9.024,9.024,0,0,0,1.565,4.6,6.216,6.216,0,0,1,1.072-.491,13.083,13.083,0,0,1,1.935-.506A15.115,15.115,0,0,1,4.029,271.041Z" transform="translate(0 -271.041)"/></g><g transform="translate(0 4.573)"><path class="a" d="M1.946,129.053c-.1-.036-.406-.142-.766-.294A9.033,9.033,0,0,0,0,132.744H4.027a15.508,15.508,0,0,1,.394-3.082A15.836,15.836,0,0,1,1.946,129.053Z" transform="translate(0 -128.759)"/></g><g transform="translate(1.776)"><path class="a" d="M50.884,2.652a9.242,9.242,0,0,0-.876,1.012c.163.065.336.13.515.191l.005,0a14.98,14.98,0,0,0,2.413.586,10.488,10.488,0,0,1,.7-1.673A4.821,4.821,0,0,1,56.79,0,9.041,9.041,0,0,0,50.884,2.652Z" transform="translate(-50.008)"/></g><g transform="translate(2.226 14.249)"><path class="a" d="M65.856,402.305a10,10,0,0,1-.5-1.1,12.318,12.318,0,0,0-1.916.49,5.429,5.429,0,0,0-.77.337q.2.234.426.456A9.041,9.041,0,0,0,69,405.137,4.934,4.934,0,0,1,65.856,402.305Z" transform="translate(-62.671 -401.202)"/></g><g transform="translate(9.627)"><path class="a" d="M276.948,2.652A9.041,9.041,0,0,0,271.042,0a4.821,4.821,0,0,1,3.147,2.77,10.511,10.511,0,0,1,.712,1.7,15.96,15.96,0,0,0,2.438-.557c.077-.029.2-.084.514-.213A9.232,9.232,0,0,0,276.948,2.652Z" transform="translate(-271.042)"/></g><g transform="translate(9.627 14.089)"><path class="a" d="M274.75,396.692a10.153,10.153,0,0,1-.56,1.263,4.934,4.934,0,0,1-3.147,2.832,9.041,9.041,0,0,0,5.906-2.652,9.251,9.251,0,0,0,.746-.842A17.676,17.676,0,0,0,274.75,396.692Z" transform="translate(-271.043 -396.692)"/></g><g transform="translate(5.995 13.891)"><path class="a" d="M168.793,391.293q.166.4.359.766a4.2,4.2,0,0,0,2.2,2.237v-3.2C170.443,391.129,169.583,391.195,168.793,391.293Z" transform="translate(-168.793 -391.099)"/></g><g transform="translate(13.661 9.627)"><path class="a" d="M385.126,271.041a15.231,15.231,0,0,1-.5,3.429,17.58,17.58,0,0,1,3.25.717,9.031,9.031,0,0,0,1.274-4.146h-4.029Z" transform="translate(-384.631 -271.041)"/></g><g transform="translate(9.627 9.627)"><path class="a" d="M271.042,271.042v3.177h.089c.986,0,1.953.045,2.872.131a14.007,14.007,0,0,0,.5-3.307Z" transform="translate(-271.042 -271.042)"/></g><g transform="translate(9.627 13.872)"><path class="a" d="M271.131,390.57h-.089v3.217a4.2,4.2,0,0,0,2.2-2.237,8.878,8.878,0,0,0,.4-.877C272.841,390.605,271.995,390.57,271.131,390.57Z" transform="translate(-271.042 -390.57)"/></g></svg>