<svg xmlns="http://www.w3.org/2000/svg" width="20.937" height="14.722" viewBox="0 0 20.937 14.722"><defs><style>.a{fill:#3bd28c;}</style></defs><g transform="translate(0 -76)"><g transform="translate(14.403 77.052)"><path class="a" d="M358.561,101.721l-6.35,6.309,6.35,6.309a1.819,1.819,0,0,0,.184-.788V102.509A1.819,1.819,0,0,0,358.561,101.721Z" transform="translate(-352.211 -101.721)"/></g><g transform="translate(1.052 76)"><path class="a" d="M43.766,76H26.509a1.819,1.819,0,0,0-.788.184l8.116,8.075a1.842,1.842,0,0,0,2.6,0l8.116-8.075A1.819,1.819,0,0,0,43.766,76Z" transform="translate(-25.721 -76)"/></g><g transform="translate(0 77.052)"><path class="a" d="M.184,101.721a1.819,1.819,0,0,0-.184.788v11.041a1.819,1.819,0,0,0,.184.788l6.35-6.309Z" transform="translate(0 -101.721)"/></g><g transform="translate(1.052 84.228)"><path class="a" d="M38.2,277.211l-.9.9a3.07,3.07,0,0,1-4.337,0l-.9-.9-6.35,6.309a1.819,1.819,0,0,0,.788.184H43.766a1.819,1.819,0,0,0,.788-.184Z" transform="translate(-25.721 -277.211)"/></g></g></svg>