<svg xmlns="http://www.w3.org/2000/svg" width="12.624" height="21" viewBox="0 0 12.624 21"><defs><style>.a{fill:#3bd28c;}</style></defs><g transform="translate(-89.856)"><g transform="translate(89.856)"><path class="a" d="M99.855,0H92.481a2.617,2.617,0,0,0-2.625,2.625v15.75A2.633,2.633,0,0,0,92.481,21h7.374a2.617,2.617,0,0,0,2.625-2.625V2.625A2.617,2.617,0,0,0,99.855,0ZM96.18,19.306a1.193,1.193,0,1,1,1.193-1.193A1.182,1.182,0,0,1,96.18,19.306Zm5.107-3.651H91.049V3.508h10.238Z" transform="translate(-89.856)"/></g></g></svg>