<svg xmlns="http://www.w3.org/2000/svg" width="20.717" height="20.694" viewBox="0 0 20.717 20.694"><defs><style>.a{fill:#3bd28c;}</style></defs><g transform="matrix(0.985, 0.174, -0.174, 0.985, 3.109, -0.018)"><g transform="translate(-0.003)"><path class="a" d="M8.4,10.518a7.217,7.217,0,0,1-2.179-4.1A.613.613,0,0,1,6.4,5.908L7.781,4.527a.617.617,0,0,0,.087-.763L5.668.349a.617.617,0,0,0-.8-.225L1.339,1.787A.613.613,0,0,0,1,2.4,17.066,17.066,0,0,0,6.2,12.723a17.061,17.061,0,0,0,10.323,5.2.613.613,0,0,0,.613-.339l1.663-3.53a.617.617,0,0,0-.224-.8l-3.415-2.2a.617.617,0,0,0-.763.086l-1.381,1.381a.613.613,0,0,1-.513.176,7.217,7.217,0,0,1-4.1-2.179Z" transform="translate(-0.997 -0.041)"/><path class="a" d="M33.858,16.475a.617.617,0,0,1-.617-.617,4.63,4.63,0,0,0-4.625-4.625.617.617,0,0,1,0-1.233,5.864,5.864,0,0,1,5.858,5.858A.617.617,0,0,1,33.858,16.475Z" transform="translate(-19.675 -6.917)"/><path class="a" d="M36.941,9.558a.617.617,0,0,1-.617-.617,7.716,7.716,0,0,0-7.708-7.708.617.617,0,1,1,0-1.233,8.951,8.951,0,0,1,8.941,8.941.617.617,0,0,1-.617.617Z" transform="translate(-19.675)"/></g></g></svg>